<svg width="70" height="70" viewBox="0 0 70 70" fill="none" xmlns="http://www.w3.org/2000/svg">
    <path d="M40.973 25.1951C40.973 21.6101 38.0949 18.7073 34.5405 18.7073C33.6958 18.7071 32.8592 18.8747 32.0787 19.2007C31.2981 19.5266 30.5889 20.0045 29.9916 20.607C29.3942 21.2095 28.9204 21.9248 28.5973 22.7121C28.2741 23.4993 28.1079 24.3431 28.1081 25.1951C28.1081 28.7801 30.9862 31.6829 34.5405 31.6829C38.0949 31.6829 40.973 28.7801 40.973 25.1951ZM44.6486 25.1951C44.6486 30.8284 40.1257 35.3902 34.5405 35.3902C33.2131 35.3905 31.8985 35.1269 30.672 34.6147C29.4456 34.1024 28.3312 33.3515 27.3925 32.4047C26.4538 31.458 25.7093 30.334 25.2014 29.0969C24.6935 27.8599 24.4322 26.534 24.4324 25.1951C24.4324 19.5619 28.9554 15 34.5405 15C40.1257 15 44.6486 19.5619 44.6486 25.1951ZM21.6757 47.7041C21.6757 49.4521 21.5286 49.2927 22.5137 49.2927H47.4863C48.4714 49.2927 48.3243 49.4521 48.3243 47.7041C48.3243 43.4629 42.2521 40.9512 35 40.9512C27.7479 40.9512 21.6757 43.4629 21.6757 47.7041ZM18 47.7041C18 40.5119 25.9009 37.2439 35 37.2439C44.0991 37.2439 52 40.5119 52 47.7041C52 51.4411 50.5646 53 47.4863 53H22.5137C19.4335 53 18 51.4429 18 47.7041Z"
          fill="#262626"/>
    <circle cx="35" cy="35" r="33" stroke="#262626" stroke-width="4"/>
</svg>
