<svg width="70" height="77" viewBox="0 0 70 77" fill="none" xmlns="http://www.w3.org/2000/svg">
    <path d="M47.2973 20.6585C47.2973 13.3942 41.3719 7.5122 34.0541 7.5122C32.3148 7.5117 30.5925 7.8514 28.9855 8.51189C27.3785 9.17239 25.9184 10.1407 24.6886 11.3616C23.4587 12.5824 22.4832 14.0319 21.8179 15.6271C21.1525 17.2223 20.8103 18.932 20.8108 20.6585C20.8108 27.9228 26.7362 33.8049 34.0541 33.8049C41.3719 33.8049 47.2973 27.9228 47.2973 20.6585ZM54.8649 20.6585C54.8649 32.0733 45.553 41.3171 34.0541 41.3171C31.321 41.3176 28.6146 40.7836 26.0895 39.7455C23.5644 38.7075 21.27 37.1858 19.3375 35.2674C17.4049 33.349 15.872 31.0714 14.8264 28.5648C13.7807 26.0582 13.2427 23.3716 13.2432 20.6585C13.2432 9.24376 22.5551 0 34.0541 0C45.553 0 54.8649 9.24376 54.8649 20.6585ZM7.56757 66.2688C7.56757 69.8108 7.26486 69.4878 9.29297 69.4878H60.707C62.7351 69.4878 62.4324 69.8108 62.4324 66.2688C62.4324 57.6749 49.9308 52.5854 35 52.5854C20.0692 52.5854 7.56757 57.6749 7.56757 66.2688ZM0 66.2688C0 51.6952 16.2665 45.0732 35 45.0732C53.7335 45.0732 70 51.6952 70 66.2688C70 73.8411 67.0449 77 60.707 77H9.29297C2.95135 77 0 73.8449 0 66.2688Z"
          fill="#949494"/>
</svg>
